<svg width="30" height="21" viewBox="0 0 30 21" fill="none" xmlns="http://www.w3.org/2000/svg">
<path d="M4.07158 14.374L5.06153 14.5154C5.10963 14.1787 4.9833 13.8406 4.72618 13.618L4.07158 14.374ZM3.5 18.375L2.51005 18.2336C2.45745 18.6018 2.61355 18.9688 2.91529 19.1862C3.21703 19.4037 3.61454 19.4358 3.94721 19.2694L3.5 18.375ZM7.7209 16.2645L7.97955 15.2986C7.74343 15.2354 7.49232 15.2608 7.27369 15.3701L7.7209 16.2645ZM18.25 9.625C18.25 12.742 15 15.625 10.5 15.625V17.625C15.665 17.625 20.25 14.24 20.25 9.625H18.25ZM10.5 3.625C15 3.625 18.25 6.50799 18.25 9.625H20.25C20.25 5.01002 15.665 1.625 10.5 1.625V3.625ZM2.75 9.625C2.75 6.50799 6.00003 3.625 10.5 3.625V1.625C5.33499 1.625 0.75 5.01002 0.75 9.625H2.75ZM4.72618 13.618C3.46509 12.526 2.75 11.1193 2.75 9.625H0.75C0.75 11.7963 1.79593 13.7263 3.41697 15.1299L4.72618 13.618ZM4.48995 18.5164L5.06153 14.5154L3.08163 14.2325L2.51005 18.2336L4.48995 18.5164ZM7.27369 15.3701L3.05279 17.4806L3.94721 19.2694L8.16811 17.159L7.27369 15.3701ZM10.5 15.625C9.61533 15.625 8.76781 15.5096 7.97955 15.2986L7.46225 17.2305C8.42024 17.487 9.44172 17.625 10.5 17.625V15.625Z" fill="#FFB86C"/>
<path d="M28.0057 5.36364V17H25.5455V7.69886H25.4773L22.8125 9.36932V7.1875L25.6932 5.36364H28.0057Z" fill="#FFB86C"/>
</svg>
