<svg width='current' height='current' fill='currentColor' viewBox="0 0 31 32" xmlns="http://www.w3.org/2000/svg">
<path d="M1 30.4583C3.62575 30.6458 7.5505 26.4026 11.5644 20.0971M14.4086 1C14.9082 7.61478 14.5203 11.9901 13.1807 16.1693M11.5644 20.0971C9.01838 28.5523 14.2999 32.8856 19.3522 28.359M11.5644 20.0971C12.2009 18.9196 12.7734 17.44 13.1807 16.1693M13.1807 16.1693C28.0815 0.276335 32.1513 15.6276 13.1807 17.5237" stroke="#FFB86C" stroke-width="2" stroke-linecap="round"/>
<path d="M31 8.17858C31 9.3006 30.0904 10.2102 28.9684 10.2102C27.8463 10.2102 26.9368 9.3006 26.9368 8.17858C26.9368 7.05655 27.8463 6.14697 28.9684 6.14697C30.0904 6.14697 31 7.05655 31 8.17858ZM28.2776 8.17858C28.2776 8.56007 28.5869 8.86933 28.9684 8.86933C29.3499 8.86933 29.6591 8.56007 29.6591 8.17858C29.6591 7.79709 29.3499 7.48783 28.9684 7.48783C28.5869 7.48783 28.2776 7.79709 28.2776 8.17858Z" fill='current'/>
</svg>